<svg id="Layer_0_图像" data-name="Layer 0 图像" xmlns="http://www.w3.org/2000/svg" xmlns:xlink="http://www.w3.org/1999/xlink" viewBox="0 0 20 20"><defs><style>.cls-1{fill:#f84e32;}.cls-2{fill:#fcb923;}.cls-3{fill:url(#未命名的渐变_6);}.cls-4{fill:#fff;}.cls-5{fill:#242c38;}.cls-6{fill:#f9f8f7;}.cls-7{fill:#19a3f7;}</style><linearGradient id="未命名的渐变_6" x1="2.51" y1="4.37" x2="16.7" y2="14.48" gradientUnits="userSpaceOnUse"><stop offset="0.04" stop-color="#f9aa26"/><stop offset="0.79" stop-color="#f84e32"/></linearGradient></defs><title>表情包</title><path class="cls-1" d="M16.6,4.47a9.12,9.12,0,0,1,1.06,4.27A8.54,8.54,0,0,1,8.83,17.2a8.42,8.42,0,0,1-6.52-3,8.42,8.42,0,0,0,7.57,4.54,8.54,8.54,0,0,0,8.83-8.45A9,9,0,0,0,16.6,4.47Z"/><path class="cls-2" d="M8.83,17.2a8.54,8.54,0,0,0,8.83-8.46A9.12,9.12,0,0,0,16.6,4.47,8.82,8.82,0,0,0,9.86,1.25a8.84,8.84,0,0,0-7.55,13A8.42,8.42,0,0,0,8.83,17.2Z"/><path class="cls-3" d="M8.83,17.2a8.54,8.54,0,0,0,8.83-8.46A9.12,9.12,0,0,0,16.6,4.47,8.82,8.82,0,0,0,9.86,1.25a8.84,8.84,0,0,0-7.55,13A8.42,8.42,0,0,0,8.83,17.2Z"/><ellipse class="cls-4" cx="7" cy="7.52" rx="2.38" ry="2.3"/><circle class="cls-5" cx="5.8" cy="7.49" r="0.71"/><ellipse class="cls-4" cx="12.87" cy="7.52" rx="2.38" ry="2.3"/><circle class="cls-5" cx="11.67" cy="7.49" r="0.71"/><path class="cls-6" d="M12.75,15.3a.4.4,0,0,1-.23-.08,2.89,2.89,0,0,0-4,0,.37.37,0,0,1-.51,0,.36.36,0,0,1,0-.51,3.6,3.6,0,0,1,5,0,.35.35,0,0,1,.06.5A.37.37,0,0,1,12.75,15.3Z"/><path class="cls-7" d="M15.93,13.18a.82.82,0,0,1-1.64,0A12.8,12.8,0,0,1,15,11a0,0,0,0,1,.05,0A7.6,7.6,0,0,1,15.93,13.18Z"/></svg>