<svg id="Layer_0_图像" data-name="Layer 0 图像" xmlns="http://www.w3.org/2000/svg" xmlns:xlink="http://www.w3.org/1999/xlink" viewBox="0 0 20 20"><defs><style>.cls-1{fill:#fcdc59;}.cls-2{fill:#fcb923;}.cls-3{fill:url(#未命名的渐变_188);}.cls-4{fill:#242c38;}.cls-5{fill:#eb6028;}.cls-6{fill:#fff;}</style><linearGradient id="未命名的渐变_188" x1="10.22" y1="13.57" x2="7.53" y2="-0.1" gradientUnits="userSpaceOnUse"><stop offset="0.2" stop-color="#ffe66a"/><stop offset="1" stop-color="#6abaff"/></linearGradient></defs><title>表情包</title><path class="cls-1" d="M16.61,4.48a9.2,9.2,0,0,1,1.08,4.33,8.63,8.63,0,0,1-8.93,8.54,8.52,8.52,0,0,1-6.59-3,8.51,8.51,0,0,0,7.65,4.59,8.63,8.63,0,0,0,8.93-8.54A9.21,9.21,0,0,0,16.61,4.48Z"/><path class="cls-2" d="M8.76,17.35a8.63,8.63,0,0,0,8.93-8.54,9.2,9.2,0,0,0-1.08-4.33A8.93,8.93,0,0,0,9.8,1.23a8.91,8.91,0,0,0-8.66,8.9,9,9,0,0,0,1,4.2A8.52,8.52,0,0,0,8.76,17.35Z"/><path class="cls-3" d="M8.76,17.35a8.63,8.63,0,0,0,8.93-8.54,9.2,9.2,0,0,0-1.08-4.33A8.93,8.93,0,0,0,9.8,1.23a8.91,8.91,0,0,0-8.66,8.9,9,9,0,0,0,1,4.2A8.52,8.52,0,0,0,8.76,17.35Z"/><path class="cls-4" d="M10,14a1,1,0,0,1,.9.66,1.38,1.38,0,0,0,.45-1,1.35,1.35,0,0,0-2.7,0,1.38,1.38,0,0,0,.45,1A1,1,0,0,1,10,14Z"/><path class="cls-5" d="M10.9,14.69A1,1,0,0,0,10,14a1,1,0,0,0-.9.66,1.36,1.36,0,0,0,1.8,0Z"/><ellipse class="cls-6" cx="7.06" cy="7.52" rx="2.38" ry="2.3"/><circle class="cls-4" cx="5.86" cy="7.49" r="0.71"/><ellipse class="cls-6" cx="12.94" cy="7.52" rx="2.38" ry="2.3"/><circle class="cls-4" cx="11.73" cy="7.49" r="0.71"/></svg>