<svg id="Layer_0_图像" data-name="Layer 0 图像" xmlns="http://www.w3.org/2000/svg" xmlns:xlink="http://www.w3.org/1999/xlink" viewBox="0 0 20 20"><defs><style>.cls-1{fill:#fcb923;}.cls-2{fill:url(#未命名的渐变_416);}.cls-3{fill:#242c38;}.cls-4{fill:#fff;}.cls-5{fill:#ed5722;}</style><linearGradient id="未命名的渐变_416" x1="2.41" y1="4.41" x2="16.78" y2="14.65" gradientUnits="userSpaceOnUse"><stop offset="0.04" stop-color="#f9d826"/><stop offset="0.79" stop-color="#f8c332"/></linearGradient></defs><title>表情包</title><path class="cls-1" d="M16.68,4.51a9.14,9.14,0,0,1,1.08,4.33A8.65,8.65,0,0,1,8.82,17.4a8.54,8.54,0,0,1-6.61-3A8.54,8.54,0,0,0,9.88,19a8.65,8.65,0,0,0,8.94-8.56A9.16,9.16,0,0,0,16.68,4.51Z"/><path class="cls-1" d="M8.82,17.4a8.65,8.65,0,0,0,8.94-8.56,9.14,9.14,0,0,0-1.08-4.33A8.92,8.92,0,0,0,9.86,1.25a8.93,8.93,0,0,0-8.68,8.92,9.07,9.07,0,0,0,1,4.21A8.54,8.54,0,0,0,8.82,17.4Z"/><path class="cls-2" d="M8.82,17.4a8.65,8.65,0,0,0,8.94-8.56,9.14,9.14,0,0,0-1.08-4.33A8.92,8.92,0,0,0,9.86,1.25a8.93,8.93,0,0,0-8.68,8.92,9.07,9.07,0,0,0,1,4.21A8.54,8.54,0,0,0,8.82,17.4Z"/><path class="cls-3" d="M14.92,10.94a.6.6,0,0,0-.46-.58,18.21,18.21,0,0,0-4.13-.44,18.3,18.3,0,0,0-4.14.44.61.61,0,0,0-.46.58h0a4.6,4.6,0,0,0,9.19,0Z"/><path class="cls-4" d="M14.92,10.94a.59.59,0,0,0-.13-.37.64.64,0,0,0-.15-.13.49.49,0,0,0-.18-.08,18.21,18.21,0,0,0-4.13-.44c-.4,0-.78,0-1.15,0l-.55,0-1.05.11-.49.08q-.46.08-.9.18l-.06,0L6,10.44l-.15.13-.05.08a1.07,1.07,0,0,0-.07.19s0,.06,0,.1h0c0,.1,0,.19,0,.28l0,.28h9.11a2.4,2.4,0,0,0,0-.28,2.53,2.53,0,0,0,0-.28Z"/><path class="cls-5" d="M10.38,15.53a4.58,4.58,0,0,0,3.31-1.41A4.9,4.9,0,0,0,7,14,4.54,4.54,0,0,0,10.38,15.53Z"/><path class="cls-3" d="M5.36,8.33H5.31A.37.37,0,0,1,5,7.92,1.57,1.57,0,0,1,6.48,6.49,1.46,1.46,0,0,1,7.74,8,.37.37,0,0,1,7,8a.78.78,0,0,0-.53-.75c-.64,0-.75.77-.76.8A.36.36,0,0,1,5.36,8.33Z"/><path class="cls-3" d="M13.2,8.33h0a.37.37,0,0,1-.31-.41,1.57,1.57,0,0,1,1.48-1.43A1.46,1.46,0,0,1,15.58,8a.37.37,0,0,1-.73,0,.78.78,0,0,0-.53-.75c-.63,0-.75.77-.76.8A.36.36,0,0,1,13.2,8.33Z"/></svg>