<svg id="Layer_0_图像" data-name="Layer 0 图像" xmlns="http://www.w3.org/2000/svg" xmlns:xlink="http://www.w3.org/1999/xlink" viewBox="0 0 20 20"><defs><style>.cls-1{fill:#fcb923;}.cls-2{fill:url(#未命名的渐变_416);}.cls-3{fill:#242c38;}.cls-4{fill:#ed5722;}</style><linearGradient id="未命名的渐变_416" x1="2.39" y1="4.38" x2="16.8" y2="14.64" gradientUnits="userSpaceOnUse"><stop offset="0.04" stop-color="#f9d826"/><stop offset="0.79" stop-color="#f8c332"/></linearGradient></defs><title>表情包</title><path class="cls-1" d="M16.7,4.48a9.24,9.24,0,0,1,1.08,4.34,8.67,8.67,0,0,1-9,8.58,8.57,8.57,0,0,1-6.63-3A8.55,8.55,0,0,0,9.88,19a8.66,8.66,0,0,0,9-8.58A9.19,9.19,0,0,0,16.7,4.48Z"/><path class="cls-1" d="M8.82,17.4a8.67,8.67,0,0,0,9-8.58A9.24,9.24,0,0,0,16.7,4.48,9,9,0,0,0,9.86,1.21a8.94,8.94,0,0,0-8.7,8.94,9.14,9.14,0,0,0,1,4.22A8.57,8.57,0,0,0,8.82,17.4Z"/><path class="cls-2" d="M8.82,17.4a8.67,8.67,0,0,0,9-8.58A9.24,9.24,0,0,0,16.7,4.48,9,9,0,0,0,9.86,1.21a8.94,8.94,0,0,0-8.7,8.94,9.14,9.14,0,0,0,1,4.22A8.57,8.57,0,0,0,8.82,17.4Z"/><path class="cls-3" d="M4.16,7.09a.36.36,0,0,1-.35-.27.37.37,0,0,1,.26-.45l2.09-.55L4.65,5.27a.36.36,0,0,1-.22-.46.36.36,0,0,1,.46-.22l2.62.94a.36.36,0,0,1,.24.36.36.36,0,0,1-.27.33l-3.22.86Z"/><path class="cls-3" d="M15.75,7.36h-.1l-3.1-.92a.35.35,0,0,1-.26-.34.37.37,0,0,1,.25-.35L15,4.92a.36.36,0,1,1,.23.69l-1.38.45,2,.59a.36.36,0,0,1-.11.71Z"/><path class="cls-3" d="M16.35,9.48a.88.88,0,0,0-.67-.83,25.65,25.65,0,0,0-6-.64,25.58,25.58,0,0,0-6,.64.85.85,0,0,0-.67.83h0a6.63,6.63,0,0,0,12.4,3.27,6.7,6.7,0,0,0,.86-3.27Z"/><path class="cls-4" d="M9.71,16.11a6.63,6.63,0,0,0,4.78-2,7,7,0,0,0-9.7-.17A6.6,6.6,0,0,0,9.71,16.11Z"/></svg>